<svg width="324" height="318" viewBox="0 0 324 318" fill="none" xmlns="http://www.w3.org/2000/svg">
<path fill-rule="evenodd" clip-rule="evenodd" d="M284.437 150.268C279.997 85.859 226.818 35 161.869 35C94.0101 35 39 90.5167 39 159C39 227.483 94.0101 283 161.869 283C225.333 283 277.559 234.44 284.057 172.129L312.89 212.923H324L285.887 159H323.951V150.268H284.437ZM161.869 274.268C221.115 274.268 269.903 228.661 275.49 170.217L245.305 212.923H234.195L272.308 159H234.195V150.268H275.701C271.28 90.6372 221.952 43.7324 161.869 43.7324C98.8808 43.7324 47.7141 95.2812 47.7141 159C47.7141 222.719 98.8808 274.268 161.869 274.268Z" fill="black"/>
</svg>
