<svg width="239" height="232" viewBox="0 0 239 232" fill="none" xmlns="http://www.w3.org/2000/svg">
<path d="M237.908 115.774C237.858 179.027 184.835 230.317 119.409 230.266C53.9832 230.214 1.04146 178.84 1.09155 115.586C1.14164 52.3329 54.1646 1.04274 119.591 1.09455C185.017 1.14636 237.959 52.5204 237.908 115.774Z" fill="white" stroke="#232929" stroke-width="2"/>
<path d="M230 45.5C230 56.293 221.47 65 211 65C200.53 65 192 56.293 192 45.5C192 34.707 200.53 26 211 26C221.47 26 230 34.707 230 45.5Z" fill="#EEEAE0" stroke="#232929" stroke-width="2"/>
<path d="M54.0527 126.916C54.0527 127.111 54.043 127.258 54.0234 127.355C53.9258 127.395 53.8477 127.453 53.7891 127.531C53.7305 127.59 53.6328 127.609 53.4961 127.59C53.457 127.883 53.3594 128.127 53.2031 128.322C53.0469 128.518 52.8809 128.693 52.7051 128.85C52.5488 129.025 52.3926 129.201 52.2363 129.377C52.0801 129.572 51.9824 129.816 51.9434 130.109C51.6504 130.266 51.3574 130.471 51.0645 130.725C50.791 130.998 50.5469 131.184 50.332 131.281C50.1758 131.359 50.0098 131.418 49.834 131.457C49.6582 131.516 49.4824 131.584 49.3066 131.662C48.7402 131.916 48.1543 132.18 47.5488 132.453C46.9629 132.727 46.3477 132.863 45.7031 132.863H45.4981C45.4199 132.941 45.3223 132.99 45.2051 133.01C45.0879 133.049 44.9707 133.078 44.8535 133.098C44.7363 133.117 44.6191 133.146 44.502 133.186C44.3848 133.225 44.2969 133.283 44.2383 133.361C44.0234 133.283 43.7891 133.244 43.5352 133.244H43.3301C42.9981 133.322 42.6856 133.381 42.3926 133.42C42.0996 133.459 41.7871 133.479 41.4551 133.479C40.8691 133.479 40.2832 133.439 39.6973 133.361C39.1113 133.283 38.5254 133.215 37.9395 133.156C37.5684 132.863 37.2656 132.492 37.0313 132.043C36.7969 131.613 36.6797 131.154 36.6797 130.666C36.6797 130.295 36.7578 129.943 36.9141 129.611C37.0703 129.299 37.2754 129.016 37.5293 128.762H37.6172C37.793 128.762 37.9688 128.723 38.1445 128.645C38.3399 128.566 38.5254 128.527 38.7012 128.527C38.8965 128.527 39.0527 128.605 39.1699 128.762C39.3066 128.918 39.4043 129.104 39.4629 129.318C39.541 129.533 39.5899 129.748 39.6094 129.963C39.6289 130.197 39.6387 130.383 39.6387 130.52C39.8535 130.617 40.0781 130.676 40.3125 130.695C40.5664 130.715 40.8203 130.725 41.0742 130.725C41.3281 130.725 41.6113 130.705 41.9238 130.666C42.2363 130.646 42.5488 130.598 42.8613 130.52C43.1934 130.461 43.5059 130.383 43.7988 130.285C44.1113 130.188 44.375 130.061 44.5899 129.904C45.6641 129.807 46.6113 129.562 47.4316 129.172C48.252 128.781 49.1211 128.322 50.0391 127.795C50.0781 127.58 50.1563 127.414 50.2734 127.297C50.4102 127.16 50.4785 126.965 50.4785 126.711C50.4785 126.672 50.4688 126.633 50.4492 126.594C50.4492 126.535 50.4492 126.486 50.4492 126.447C50.0586 125.959 49.6484 125.529 49.2188 125.158C48.8086 124.787 48.2715 124.543 47.6074 124.426C47.5293 124.25 47.4024 124.123 47.2266 124.045C47.0508 123.947 46.8652 123.859 46.6699 123.781C46.4746 123.703 46.2891 123.625 46.1133 123.547C45.9375 123.449 45.8106 123.293 45.7324 123.078C45.2051 122.98 44.6582 122.863 44.0918 122.727C43.5449 122.57 43.0762 122.297 42.6856 121.906C42.3731 121.887 42.0703 121.828 41.7774 121.73C41.5039 121.613 41.2305 121.506 40.957 121.408C40.6836 121.291 40.4004 121.193 40.1074 121.115C39.8145 121.018 39.5117 120.969 39.1992 120.969C39.1211 120.832 39.0137 120.725 38.877 120.646C38.7402 120.568 38.584 120.5 38.4082 120.441C38.252 120.383 38.0957 120.324 37.9395 120.266C37.8027 120.188 37.6953 120.08 37.6172 119.943C37.5391 119.963 37.4805 120.002 37.4414 120.061C37.4024 120.119 37.334 120.148 37.2363 120.148H37.1191C37.0801 120.031 37.002 119.953 36.8848 119.914C36.7676 119.855 36.6992 119.748 36.6797 119.592C36.3281 119.572 36.0059 119.504 35.7129 119.387C35.4395 119.27 35.1758 119.143 34.9219 119.006C34.6875 118.85 34.4434 118.703 34.1895 118.566C33.9356 118.43 33.6524 118.322 33.3399 118.244C33.1445 118.088 32.959 117.922 32.7832 117.746C32.627 117.551 32.4219 117.453 32.168 117.453C32.1094 117.453 32.002 117.473 31.8457 117.512C31.8066 117.16 31.6602 116.916 31.4063 116.779C31.1524 116.623 30.8789 116.486 30.5859 116.369C30.3906 115.861 30.127 115.412 29.7949 115.021C29.4629 114.631 29.1016 114.27 28.7109 113.938C28.75 113.82 28.7695 113.732 28.7695 113.674C28.7695 113.479 28.7207 113.312 28.6231 113.176C28.5254 113.02 28.418 112.893 28.3008 112.795C28.0274 111.916 27.8906 111.057 27.8906 110.217C27.8906 109.045 28.1543 107.961 28.6816 106.965C29.1895 105.949 30 105.188 31.1133 104.68C31.1328 104.523 31.1816 104.387 31.2598 104.27C31.3574 104.152 31.416 104.016 31.4356 103.859C31.6113 103.859 31.7481 103.82 31.8457 103.742C31.9434 103.664 32.0313 103.586 32.1094 103.508C32.207 103.41 32.3047 103.322 32.4024 103.244C32.5 103.166 32.627 103.117 32.7832 103.098C33.5254 102.453 34.3164 101.936 35.1563 101.545C35.9961 101.135 36.8555 100.715 37.7344 100.285C37.9102 100.207 38.0566 100.061 38.1738 99.8457H38.3496C38.5449 99.8457 38.6914 99.8066 38.7891 99.7285C38.9063 99.6309 39.0723 99.6016 39.2871 99.6406C39.3652 99.5234 39.4629 99.4453 39.5801 99.4062C39.7168 99.3672 39.8438 99.3379 39.9609 99.3184C40.0977 99.2793 40.2246 99.2305 40.3418 99.1719C40.459 99.1133 40.5371 99.0254 40.5762 98.9082H40.7813C41.1133 98.9082 41.4356 98.8594 41.7481 98.7617C42.0606 98.6445 42.3731 98.5176 42.6856 98.3809H42.8906C43.2813 98.3809 43.6426 98.3125 43.9746 98.1758C44.3262 98.0195 44.6973 97.9121 45.0879 97.8535C45.2441 97.8145 45.4004 97.8047 45.5566 97.8242C45.7129 97.8438 45.8691 97.8535 46.0254 97.8535C46.1231 97.8535 46.2402 97.8438 46.377 97.8242C46.5137 97.8047 46.6113 97.7461 46.6699 97.6484H46.7285C46.8457 97.6484 46.9141 97.6875 46.9336 97.7656C46.9531 97.8438 47.0117 97.8828 47.1094 97.8828C47.2461 97.8828 47.3828 97.8633 47.5195 97.8242C47.6563 97.7852 47.793 97.7656 47.9297 97.7656C48.5156 97.7656 49.0918 97.8242 49.6582 97.9414C50.2441 98.0586 50.8203 98.166 51.3867 98.2637C51.4258 98.498 51.5234 98.6641 51.6797 98.7617C51.8555 98.8594 52.041 98.9473 52.2363 99.0254V99.1426C52.2363 99.2988 52.2754 99.4258 52.3535 99.5234C52.2754 99.7969 52.1387 100.002 51.9434 100.139C51.7481 100.275 51.5332 100.393 51.2988 100.49C51.3965 100.568 51.4551 100.676 51.4746 100.812C51.4941 100.949 51.5039 101.076 51.5039 101.193V101.545L51.3574 101.516C51.0449 101.516 50.8887 101.662 50.8887 101.955C50.6348 101.799 50.3516 101.701 50.0391 101.662C49.7461 101.623 49.4531 101.604 49.1602 101.604C48.7695 101.604 48.3594 101.623 47.9297 101.662C47.5 101.682 47.0801 101.672 46.6699 101.633C46.5137 101.828 46.3184 101.975 46.084 102.072C45.8496 102.15 45.6152 102.189 45.3809 102.189C45.127 102.189 44.8828 102.141 44.6484 102.043C44.4141 101.926 44.2481 101.76 44.1504 101.545C44.0527 101.506 43.9649 101.486 43.8867 101.486H43.6231C43.3106 101.486 42.9981 101.525 42.6856 101.604C42.3926 101.662 42.0899 101.74 41.7774 101.838C41.4649 101.916 41.1524 102.004 40.8399 102.102C40.5469 102.18 40.2441 102.229 39.9316 102.248C39.8145 102.404 39.6582 102.512 39.4629 102.57C39.2676 102.629 39.1113 102.736 38.9941 102.893C38.584 102.971 38.2129 103.107 37.8809 103.303C37.5488 103.479 37.2266 103.674 36.9141 103.889L36.0059 104.504C35.7129 104.699 35.3809 104.865 35.0098 105.002C34.7363 105.295 34.4824 105.529 34.2481 105.705C34.0137 105.881 33.7109 106.037 33.3399 106.174C33.1055 106.252 32.9688 106.369 32.9297 106.525C32.9102 106.682 32.832 106.838 32.6953 106.994C32.5781 107.131 32.4316 107.238 32.2559 107.316C32.0996 107.375 31.9629 107.482 31.8457 107.639C31.7481 107.775 31.6699 107.941 31.6113 108.137C31.5723 108.312 31.5234 108.488 31.4649 108.664C31.4063 108.84 31.3379 109.016 31.2598 109.191C31.1816 109.348 31.0645 109.484 30.9082 109.602C30.9082 109.68 30.8984 109.758 30.8789 109.836C30.8789 109.914 30.8789 109.982 30.8789 110.041C30.8789 110.314 30.9082 110.598 30.9668 110.891C31.0449 111.164 31.0938 111.438 31.1133 111.711C31.5039 112.395 31.9629 113.02 32.4902 113.586C33.0176 114.133 33.584 114.641 34.1895 115.109C34.7949 115.578 35.4199 116.018 36.0645 116.428C36.7285 116.838 37.3828 117.238 38.0274 117.629C38.2617 117.609 38.4766 117.639 38.6719 117.717C38.8672 117.775 39.0723 117.814 39.2871 117.834C39.5215 118.01 39.7949 118.146 40.1074 118.244L41.0449 118.537C41.3574 118.635 41.6602 118.752 41.9531 118.889C42.2461 119.006 42.4902 119.172 42.6856 119.387C42.7832 119.406 42.8711 119.436 42.9492 119.475C43.0274 119.494 43.1152 119.504 43.2129 119.504C43.3301 119.504 43.3984 119.465 43.418 119.387C44.2969 119.719 45.1563 120.09 45.9961 120.5C46.8359 120.891 47.7246 121.193 48.6621 121.408C49.0332 121.721 49.4434 121.994 49.8926 122.229C50.3418 122.463 50.791 122.707 51.2402 122.961C51.6895 123.195 52.1191 123.459 52.5293 123.752C52.9395 124.025 53.3008 124.357 53.6133 124.748C53.6524 125.119 53.7305 125.48 53.8477 125.832C53.9844 126.164 54.0527 126.525 54.0527 126.916ZM80.8594 109.162C80.7813 109.416 80.6543 109.65 80.4785 109.865L79.9805 110.48C79.8242 110.676 79.6875 110.891 79.5703 111.125C79.4727 111.34 79.4434 111.594 79.4824 111.887C79.4434 111.887 79.3945 111.887 79.3359 111.887C79.2774 111.867 79.2285 111.857 79.1895 111.857C78.877 111.857 78.6328 111.936 78.457 112.092C78.3008 112.229 78.0859 112.346 77.8125 112.443C77.7734 112.326 77.7246 112.219 77.666 112.121C77.6074 112.004 77.5195 111.926 77.4024 111.887C76.9336 111.984 76.4649 112.062 75.9961 112.121C75.5274 112.16 75.0586 112.219 74.5899 112.297C74.375 112.336 74.1602 112.395 73.9453 112.473C73.7305 112.531 73.5059 112.59 73.2715 112.648C73.1543 112.688 73.0274 112.707 72.8906 112.707C72.7539 112.688 72.6172 112.688 72.4805 112.707C72.0117 112.727 71.5039 112.766 70.957 112.824C70.4102 112.863 69.9219 113.01 69.4922 113.264C69.2969 113.225 69.0918 113.195 68.877 113.176C68.6621 113.156 68.4473 113.146 68.2324 113.146C67.7637 113.146 67.2461 113.195 66.6797 113.293C66.1328 113.371 65.6445 113.537 65.2149 113.791C65.1172 113.752 65.0098 113.723 64.8926 113.703C64.7949 113.684 64.6777 113.674 64.541 113.674C64.502 113.674 64.4727 113.684 64.4531 113.703C64.4336 113.703 64.4043 113.703 64.3652 113.703C64.3457 113.879 64.3652 114.055 64.4238 114.23C64.502 114.387 64.6289 114.514 64.8047 114.611C64.7266 114.826 64.6875 115.061 64.6875 115.314C64.6875 115.646 64.707 115.979 64.7461 116.311C64.8047 116.643 64.834 116.975 64.834 117.307C64.834 117.678 64.7852 117.971 64.6875 118.186C64.8828 118.771 64.9805 119.396 64.9805 120.061C64.9805 120.295 64.9609 120.529 64.9219 120.764C64.9024 120.979 64.8926 121.213 64.8926 121.467C64.8926 121.682 64.9707 121.857 65.127 121.994C65.2832 122.111 65.3613 122.277 65.3613 122.492C65.3613 122.57 65.3418 122.648 65.3027 122.727C65.5762 122.668 65.8399 122.59 66.0938 122.492C66.3477 122.375 66.6113 122.316 66.8848 122.316C67.041 122.316 67.1875 122.346 67.3242 122.404C67.4805 122.463 67.6172 122.541 67.7344 122.639C67.7149 122.736 67.6953 122.844 67.6758 122.961C67.6758 123.078 67.6758 123.195 67.6758 123.312C67.6758 123.527 67.6758 123.732 67.6758 123.928C67.6953 124.104 67.7149 124.299 67.7344 124.514C67.5781 124.787 67.3926 125.031 67.1777 125.246C66.9824 125.461 66.8457 125.734 66.7676 126.066C66.4746 126.066 66.2109 126.135 65.9766 126.271C65.7617 126.389 65.5566 126.525 65.3613 126.682C65.166 126.818 64.9707 126.955 64.7754 127.092C64.5801 127.209 64.3652 127.268 64.1309 127.268C63.8379 127.268 63.6328 127.229 63.5156 127.15C63.3984 127.053 63.3106 126.955 63.252 126.857C63.1934 126.76 63.1348 126.672 63.0762 126.594C63.0371 126.516 62.9395 126.486 62.7832 126.506C62.7441 126.252 62.666 126.018 62.5488 125.803C62.4316 125.568 62.3047 125.344 62.168 125.129C62.0508 124.914 61.9238 124.699 61.7871 124.484C61.6699 124.25 61.582 124.016 61.5234 123.781C61.4063 123.273 61.3574 122.746 61.377 122.199C61.3965 121.652 61.3086 121.125 61.1133 120.617C61.1524 120.344 61.1816 120.07 61.2012 119.797C61.2207 119.504 61.2305 119.221 61.2305 118.947C61.2305 118.4 61.2109 117.863 61.1719 117.336C61.1524 116.789 61.1328 116.232 61.1133 115.666C60.9766 115.49 60.8887 115.295 60.8496 115.08C60.8301 114.846 60.8106 114.621 60.791 114.406C60.7324 114.348 60.6641 114.289 60.5859 114.23C60.5274 114.172 60.4883 114.094 60.4688 113.996C60.3125 113.957 60.1953 113.938 60.1172 113.938C59.8438 113.938 59.6094 114.006 59.4141 114.143C59.2383 114.26 59.0723 114.318 58.916 114.318C58.7598 114.318 58.6133 114.299 58.4766 114.26C58.3399 114.221 58.2031 114.201 58.0664 114.201C57.9492 114.201 57.8809 114.23 57.8613 114.289C57.8613 114.328 57.8223 114.367 57.7441 114.406C57.6856 114.445 57.5488 114.484 57.334 114.523C57.1191 114.562 56.875 114.602 56.6016 114.641C56.3477 114.66 56.0938 114.68 55.8399 114.699C55.6055 114.719 55.4492 114.729 55.3711 114.729C55.0586 114.729 54.8242 114.67 54.668 114.553C54.4922 114.416 54.2871 114.27 54.0527 114.113C54.0918 113.996 54.1113 113.918 54.1113 113.879C54.1113 113.684 54.0527 113.527 53.9356 113.41C53.8184 113.273 53.7598 113.156 53.7598 113.059C53.7598 112.844 53.8477 112.678 54.0234 112.561C54.1797 112.443 54.2676 112.258 54.2871 112.004C54.7363 111.809 55.1953 111.662 55.6641 111.564C56.1328 111.467 56.6113 111.389 57.0996 111.33C57.5879 111.271 58.0664 111.203 58.5352 111.125C59.0234 111.047 59.502 110.92 59.9707 110.744C60.1074 110.764 60.2344 110.783 60.3516 110.803C60.4883 110.803 60.625 110.803 60.7617 110.803C61.3477 110.803 61.9238 110.744 62.4902 110.627C63.0762 110.49 63.6719 110.422 64.2774 110.422C64.4336 110.422 64.5899 110.432 64.7461 110.451C64.9024 110.471 65.0586 110.5 65.2149 110.539C65.9961 110.422 66.7676 110.295 67.5293 110.158C68.3106 110.021 69.1113 109.904 69.9316 109.807C70.3223 109.768 70.7031 109.738 71.0742 109.719C71.4649 109.68 71.8555 109.631 72.2461 109.572C72.3828 109.553 72.4805 109.523 72.5391 109.484C72.6172 109.426 72.6563 109.318 72.6563 109.162C72.832 109.24 73.0274 109.279 73.2422 109.279C73.5742 109.279 73.8965 109.221 74.209 109.104C74.5215 108.986 74.8438 108.928 75.1758 108.928C75.2539 108.928 75.3223 108.938 75.3809 108.957C75.4395 108.957 75.4981 108.957 75.5566 108.957C75.6934 108.957 75.7617 108.898 75.7617 108.781C75.7813 108.645 75.8789 108.557 76.0547 108.518C76.1914 108.479 76.3867 108.449 76.6406 108.43C76.8945 108.41 77.1582 108.391 77.4316 108.371C77.7246 108.332 77.9883 108.293 78.2227 108.254C78.4766 108.195 78.6621 108.117 78.7793 108.02L78.9844 107.697C79.3359 107.717 79.5899 107.873 79.7461 108.166C79.9219 108.439 80.0195 108.742 80.0391 109.074C80.1172 109.152 80.2246 109.191 80.3613 109.191C80.5176 109.172 80.6543 109.162 80.7715 109.162H80.8594ZM95.0098 123.254C94.9316 123.547 94.8047 123.791 94.6289 123.986C94.4531 124.182 94.2481 124.357 94.0137 124.514C93.7988 124.67 93.5645 124.816 93.3106 124.953C93.0566 125.07 92.8125 125.207 92.5781 125.363H92.1973C91.377 125.363 90.7422 125.168 90.293 124.777C89.8633 124.367 89.5313 123.869 89.2969 123.283C89.0625 122.678 88.8867 122.033 88.7695 121.35C88.6719 120.666 88.5449 120.041 88.3887 119.475C88.1543 119.67 87.959 119.904 87.8027 120.178C87.6465 120.432 87.4805 120.686 87.3047 120.939C87.1484 121.193 86.9629 121.428 86.7481 121.643C86.5527 121.857 86.2891 122.004 85.957 122.082C85.8984 122.219 85.8301 122.355 85.752 122.492C85.6934 122.629 85.6543 122.775 85.6348 122.932C85.2051 123.166 84.8145 123.439 84.4629 123.752C84.1113 124.064 83.7598 124.387 83.4082 124.719C83.0566 125.051 82.6953 125.373 82.3242 125.686C81.9727 125.979 81.5723 126.223 81.1231 126.418C81.1035 126.398 81.0645 126.389 81.0059 126.389C80.7715 126.389 80.5566 126.447 80.3613 126.564C80.166 126.662 79.9512 126.711 79.7168 126.711C79.5606 126.711 79.4141 126.682 79.2774 126.623C79.1602 126.564 79.0332 126.496 78.8965 126.418C78.7793 126.34 78.6524 126.281 78.5156 126.242C78.3789 126.203 78.2324 126.193 78.0762 126.213C77.8809 125.861 77.6172 125.539 77.2852 125.246C76.9727 124.934 76.7774 124.582 76.6992 124.191C76.6602 124.016 76.6309 123.84 76.6113 123.664C76.6113 123.469 76.5918 123.273 76.5527 123.078C76.4941 122.785 76.416 122.492 76.3184 122.199C76.2207 121.887 76.1426 121.574 76.084 121.262C76.1816 120.734 76.2793 120.158 76.377 119.533C76.4551 118.889 76.5527 118.254 76.6699 117.629C76.8066 116.984 76.9824 116.379 77.1973 115.812C77.4316 115.227 77.7246 114.729 78.0762 114.318L78.0469 114.113C78.0469 113.801 78.1055 113.508 78.2227 113.234C78.3399 112.961 78.4668 112.697 78.6035 112.443C78.7402 112.189 78.8574 111.936 78.9551 111.682C79.0527 111.428 79.0723 111.145 79.0137 110.832C79.2481 110.715 79.4922 110.617 79.7461 110.539C80 110.461 80.2637 110.422 80.5371 110.422C80.791 110.422 81.0254 110.461 81.2402 110.539C81.2012 110.695 81.2695 110.793 81.4453 110.832V110.92C81.4453 111.33 81.3965 111.73 81.2988 112.121C81.2012 112.512 81.084 112.902 80.9473 113.293C80.8106 113.664 80.6738 114.045 80.5371 114.436C80.4199 114.807 80.332 115.188 80.2734 115.578C80.1953 115.598 80.1367 115.637 80.0977 115.695C80.0781 115.754 80.0586 115.812 80.0391 115.871C80.0195 115.93 79.9902 115.979 79.9512 116.018C79.9121 116.057 79.8535 116.076 79.7754 116.076C79.6582 116.76 79.5313 117.443 79.3945 118.127C79.2774 118.791 79.2188 119.465 79.2188 120.148C79.2188 120.559 79.2578 120.979 79.3359 121.408C79.4141 121.838 79.5606 122.248 79.7754 122.639L79.8926 122.609C80.1074 122.609 80.2734 122.658 80.3906 122.756C80.5274 122.854 80.7031 122.951 80.918 123.049C81.0742 123.01 81.2207 122.961 81.3574 122.902C81.4941 122.824 81.5527 122.697 81.5332 122.521C81.7871 122.502 82.002 122.443 82.1777 122.346C82.3535 122.229 82.5098 122.102 82.6465 121.965L83.0859 121.555C83.2422 121.418 83.4277 121.32 83.6426 121.262C83.6426 121.145 83.6719 121.057 83.7305 120.998L83.9063 120.822C83.9649 120.764 84.0039 120.705 84.0234 120.646C84.0625 120.568 84.0723 120.461 84.0527 120.324C84.2871 120.305 84.4629 120.246 84.5801 120.148C84.7168 120.051 84.834 119.943 84.9316 119.826C85.0488 119.689 85.1563 119.553 85.2539 119.416C85.3516 119.279 85.4785 119.162 85.6348 119.064C85.7715 118.771 85.957 118.381 86.1914 117.893C86.4453 117.404 86.6895 116.896 86.9238 116.369C87.1777 115.842 87.3926 115.344 87.5684 114.875C87.7637 114.387 87.8613 114.016 87.8613 113.762C87.8613 113.664 87.832 113.576 87.7734 113.498C87.7344 113.42 87.7246 113.332 87.7441 113.234V113.146C87.9004 112.951 88.0371 112.736 88.1543 112.502C88.291 112.268 88.4277 112.043 88.5645 111.828C88.7207 111.613 88.8867 111.418 89.0625 111.242C89.2383 111.066 89.4629 110.93 89.7363 110.832C90.0488 110.93 90.3613 110.998 90.6738 111.037C91.0059 111.076 91.3184 111.154 91.6113 111.271C91.6309 111.76 91.6797 112.326 91.7578 112.971C91.8359 113.615 91.9727 114.162 92.168 114.611C92.168 114.865 92.1582 115.109 92.1387 115.344C92.1387 115.578 92.1387 115.812 92.1387 116.047C92.1387 116.438 92.1484 116.838 92.168 117.248C92.207 117.658 92.2754 118.039 92.3731 118.391C92.2363 118.684 92.168 118.996 92.168 119.328C92.168 119.777 92.2363 120.207 92.3731 120.617C92.5098 121.008 92.6074 121.428 92.666 121.877C92.9199 122.229 93.252 122.404 93.6621 122.404C93.7598 122.404 93.8379 122.395 93.8965 122.375C93.9746 122.355 94.0527 122.326 94.1309 122.287C94.2871 122.463 94.4238 122.639 94.541 122.814C94.6777 122.971 94.834 123.117 95.0098 123.254ZM115.664 113.557C115.664 113.752 115.596 113.879 115.459 113.938C115.322 113.996 115.254 114.113 115.254 114.289C115.254 114.348 115.273 114.396 115.313 114.436C115.352 114.475 115.371 114.533 115.371 114.611V114.729C115.137 115.861 114.795 116.848 114.346 117.688C113.916 118.527 113.408 119.299 112.822 120.002C112.236 120.705 111.572 121.369 110.83 121.994C110.107 122.619 109.326 123.273 108.486 123.957C108.252 124.152 108.008 124.348 107.754 124.543C107.52 124.738 107.295 124.943 107.08 125.158L106.436 125.773C106.416 125.793 106.309 125.842 106.113 125.92C105.918 125.979 105.801 126.018 105.762 126.037C105.488 126.154 105.195 126.291 104.883 126.447C104.59 126.604 104.336 126.799 104.121 127.033C103.73 127.033 103.398 127.092 103.125 127.209C102.852 127.326 102.549 127.482 102.217 127.678C102.119 127.678 102.031 127.658 101.953 127.619C101.895 127.58 101.826 127.541 101.748 127.502C101.67 127.463 101.582 127.443 101.484 127.443C101.406 127.424 101.299 127.434 101.162 127.473C100.928 127.082 100.674 126.75 100.4 126.477C100.127 126.203 99.7559 126.037 99.2871 125.979C99.2285 125.646 99.0918 125.393 98.877 125.217C98.6621 125.021 98.4473 124.816 98.2324 124.602C98.1934 124.484 98.1641 124.348 98.1445 124.191C98.125 124.035 98.0859 123.889 98.0274 123.752C97.9688 123.615 97.8906 123.498 97.793 123.4C97.6953 123.303 97.5586 123.254 97.3828 123.254C97.3633 123.137 97.4121 123.078 97.5293 123.078C97.6465 123.078 97.7051 123.029 97.7051 122.932C97.7051 122.814 97.6856 122.697 97.6465 122.58C97.6074 122.463 97.5879 122.336 97.5879 122.199C97.5879 122.102 97.5977 122.014 97.6172 121.936C97.6367 121.857 97.666 121.77 97.7051 121.672C97.6465 121.145 97.6172 120.607 97.6172 120.061C97.6172 119.006 97.6856 117.971 97.8223 116.955C97.9785 115.92 98.0566 114.875 98.0566 113.82C98.0566 113.352 98.0274 112.883 97.9688 112.414C97.9297 111.945 97.8418 111.486 97.7051 111.037C97.2559 111.135 96.8066 111.252 96.3574 111.389C95.9082 111.506 95.4883 111.672 95.0977 111.887C94.8828 111.75 94.6582 111.672 94.4238 111.652C94.1699 111.613 93.9258 111.555 93.6914 111.477C93.5547 111.203 93.4863 110.92 93.4863 110.627C93.4863 110.354 93.5352 110.09 93.6328 109.836L93.9258 109.074C94.3945 108.977 94.8633 108.83 95.332 108.635C95.7813 108.439 96.2402 108.264 96.709 108.107C96.8652 108.068 97.0606 108.02 97.2949 107.961C97.5488 107.902 97.7246 107.854 97.8223 107.814C97.959 107.756 98.0469 107.648 98.0859 107.492C98.1445 107.316 98.2227 107.17 98.3203 107.053H98.8184C98.9356 107.053 99.0625 107.062 99.1992 107.082C99.3359 107.082 99.4629 107.111 99.5801 107.17C100.283 106.994 100.986 106.887 101.689 106.848C102.393 106.789 103.115 106.711 103.857 106.613C103.936 106.613 104.053 106.604 104.209 106.584L104.707 106.496C104.883 106.457 105.039 106.428 105.176 106.408C105.332 106.369 105.439 106.35 105.498 106.35C105.557 106.35 105.586 106.379 105.586 106.438H106.084C106.924 106.438 107.744 106.545 108.545 106.76L110.947 107.404C111.279 107.678 111.611 107.941 111.943 108.195C112.275 108.449 112.646 108.674 113.057 108.869C113.154 109.182 113.301 109.436 113.496 109.631C113.711 109.807 113.945 110.002 114.199 110.217C114.297 110.471 114.424 110.744 114.58 111.037C114.756 111.311 114.922 111.594 115.078 111.887C115.234 112.18 115.371 112.473 115.488 112.766C115.605 113.039 115.664 113.303 115.664 113.557ZM112.939 113.996C112.725 113.547 112.52 113.078 112.324 112.59C112.129 112.102 111.885 111.662 111.592 111.271C111.24 111.174 110.879 111.057 110.508 110.92C110.156 110.764 109.912 110.5 109.775 110.129C109.736 110.148 109.668 110.158 109.57 110.158C109.395 110.158 109.238 110.09 109.102 109.953C108.965 109.816 108.809 109.729 108.633 109.689C108.477 109.67 108.262 109.641 107.988 109.602C107.734 109.562 107.461 109.533 107.168 109.514C106.875 109.494 106.582 109.475 106.289 109.455C106.016 109.436 105.801 109.426 105.645 109.426C105.488 109.426 105.322 109.436 105.146 109.455C104.99 109.455 104.824 109.465 104.648 109.484C104.492 109.484 104.395 109.514 104.355 109.572C104.316 109.611 104.238 109.65 104.121 109.689C104.023 109.65 103.916 109.631 103.799 109.631H103.447C103.037 109.631 102.627 109.699 102.217 109.836C101.826 109.953 101.436 110.119 101.045 110.334V110.451C101.045 110.607 101.113 110.695 101.25 110.715C101.387 110.734 101.465 110.812 101.484 110.949C101.387 110.949 101.309 110.959 101.25 110.979C101.191 110.979 101.162 111.047 101.162 111.184C101.162 111.379 101.182 111.594 101.221 111.828C101.279 112.062 101.309 112.297 101.309 112.531C101.309 112.707 101.289 112.912 101.25 113.146C101.211 113.381 101.113 113.566 100.957 113.703C101.152 113.879 101.25 114.113 101.25 114.406C101.25 114.602 101.211 114.807 101.133 115.021C101.055 115.236 100.957 115.422 100.84 115.578C100.801 116.398 100.723 117.229 100.605 118.068C100.488 118.908 100.43 119.738 100.43 120.559C100.43 120.969 100.449 121.369 100.488 121.76C100.547 122.15 100.635 122.541 100.752 122.932C100.967 123.146 101.191 123.312 101.426 123.43C101.68 123.547 101.943 123.664 102.217 123.781V123.869C102.217 123.928 102.178 123.986 102.1 124.045C102.021 124.104 101.982 124.182 101.982 124.279C101.982 124.357 102.021 124.396 102.1 124.396C102.92 124.162 103.691 123.879 104.414 123.547C105.137 123.215 105.811 122.766 106.436 122.199C106.494 122.141 106.553 122.111 106.611 122.111C106.65 122.111 106.699 122.121 106.758 122.141C106.836 122.16 106.904 122.18 106.963 122.199L106.934 122.082C106.934 121.965 106.963 121.857 107.021 121.76C107.1 121.662 107.188 121.574 107.285 121.496L107.578 121.232C107.676 121.135 107.754 121.037 107.813 120.939C107.969 120.9 108.076 120.822 108.135 120.705C108.213 120.588 108.34 120.529 108.516 120.529C108.555 120.314 108.662 120.158 108.838 120.061C109.014 119.943 109.121 119.777 109.16 119.562C109.551 119.348 109.893 119.084 110.186 118.771C110.498 118.459 110.781 118.127 111.035 117.775C111.309 117.424 111.563 117.062 111.797 116.691C112.031 116.301 112.275 115.93 112.529 115.578V115.461C112.529 115.148 112.578 114.895 112.676 114.699C112.793 114.504 112.881 114.27 112.939 113.996ZM132.451 107.844C132.451 108.02 132.373 108.166 132.217 108.283C132.08 108.4 132.012 108.488 132.012 108.547C132.012 108.664 132.031 108.752 132.07 108.811C132.109 108.85 132.129 108.898 132.129 108.957V109.104C131.934 109.299 131.787 109.514 131.689 109.748C131.592 109.963 131.514 110.197 131.455 110.451C131.396 110.686 131.338 110.93 131.279 111.184C131.24 111.438 131.182 111.682 131.104 111.916C131.006 112.15 130.879 112.355 130.723 112.531C130.566 112.688 130.439 112.873 130.342 113.088C130.186 113.439 130.068 113.801 129.99 114.172C129.912 114.543 129.746 114.885 129.492 115.197V115.344C129.473 115.48 129.512 115.598 129.609 115.695C129.238 116.184 128.945 116.77 128.73 117.453C128.516 118.117 128.34 118.82 128.203 119.562C128.066 120.285 127.949 121.018 127.852 121.76C127.754 122.482 127.637 123.137 127.5 123.723C127.598 124.152 127.744 124.562 127.939 124.953C128.154 125.324 128.359 125.715 128.555 126.125C128.945 126.223 129.316 126.359 129.668 126.535C130.039 126.711 130.303 126.994 130.459 127.385C130.42 127.775 130.293 128.078 130.078 128.293C129.863 128.508 129.6 128.732 129.287 128.967C129.072 128.889 128.896 128.82 128.76 128.762C128.623 128.723 128.418 128.723 128.145 128.762C127.773 128.469 127.422 128.234 127.09 128.059C126.777 127.883 126.494 127.58 126.24 127.15C126.201 127.092 126.143 127.062 126.064 127.062H125.801C125.703 126.828 125.586 126.584 125.449 126.33C125.313 126.057 125.176 125.783 125.039 125.51C124.902 125.217 124.785 124.934 124.688 124.66C124.59 124.367 124.541 124.104 124.541 123.869C124.541 122.873 124.629 121.887 124.805 120.91C125 119.914 125.098 118.908 125.098 117.893V117.6C124.707 117.697 124.316 117.834 123.926 118.01C123.555 118.186 123.174 118.322 122.783 118.42C122.646 118.459 122.568 118.527 122.549 118.625C122.529 118.723 122.471 118.801 122.373 118.859C122.178 118.879 121.992 118.898 121.816 118.918C121.641 118.918 121.475 118.918 121.318 118.918C120.986 118.918 120.635 118.908 120.264 118.889C119.912 118.85 119.561 118.781 119.209 118.684C118.857 118.586 118.525 118.449 118.213 118.273C117.92 118.098 117.656 117.873 117.422 117.6C117.383 117.619 117.334 117.639 117.275 117.658C117.217 117.678 117.158 117.688 117.1 117.688C117.041 117.688 116.982 117.678 116.924 117.658C116.865 117.639 116.816 117.619 116.777 117.6C116.621 117.385 116.494 117.15 116.396 116.896L116.104 116.135C116.006 115.881 115.898 115.637 115.781 115.402C115.664 115.168 115.508 114.953 115.313 114.758C115.254 114.406 115.225 114.064 115.225 113.732C115.225 113.381 115.254 113.039 115.313 112.707C115.352 112.375 115.42 112.043 115.518 111.711C115.439 111.477 115.391 111.232 115.371 110.979C115.332 110.725 115.313 110.471 115.313 110.217C115.313 109.924 115.342 109.621 115.4 109.309C115.459 108.996 115.557 108.713 115.693 108.459C115.83 108.186 116.025 107.961 116.279 107.785C116.514 107.609 116.807 107.521 117.158 107.521C117.549 107.521 117.91 107.629 118.242 107.844C118.574 108.039 118.896 108.244 119.209 108.459C119.248 108.693 119.277 108.928 119.297 109.162C119.316 109.377 119.326 109.611 119.326 109.865C119.326 110.334 119.297 110.812 119.238 111.301C119.199 111.77 119.18 112.248 119.18 112.736C119.18 113.244 119.238 113.723 119.355 114.172C119.492 114.602 119.727 115.012 120.059 115.402H120.176C120.332 115.383 120.469 115.412 120.586 115.49C120.703 115.568 120.84 115.607 120.996 115.607C121.133 115.607 121.24 115.559 121.318 115.461C121.396 115.344 121.494 115.285 121.611 115.285C121.729 115.285 121.816 115.305 121.875 115.344C121.934 115.383 121.982 115.402 122.021 115.402C122.236 115.402 122.48 115.324 122.754 115.168C123.027 115.012 123.203 114.836 123.281 114.641C123.359 114.699 123.457 114.729 123.574 114.729C123.73 114.729 123.877 114.68 124.014 114.582C124.15 114.484 124.326 114.436 124.541 114.436C124.658 114.436 124.697 114.367 124.658 114.23C124.639 114.074 124.678 113.977 124.775 113.938C125.01 113.84 125.264 113.703 125.537 113.527C125.83 113.332 126.064 113.215 126.24 113.176C126.338 112.922 126.455 112.688 126.592 112.473C126.748 112.238 126.904 112.023 127.061 111.828C127.119 111.379 127.236 110.949 127.412 110.539C127.588 110.129 127.773 109.719 127.969 109.309C128.164 108.898 128.35 108.488 128.525 108.078C128.701 107.668 128.818 107.238 128.877 106.789C129.092 106.574 129.258 106.34 129.375 106.086C129.512 105.832 129.629 105.578 129.727 105.324C129.922 105.266 130.166 105.236 130.459 105.236C130.752 105.217 131.006 105.207 131.221 105.207H131.719C131.777 105.324 131.855 105.432 131.953 105.529L132.246 105.822C132.07 106.096 131.982 106.369 131.982 106.643C131.982 106.857 132.031 107.072 132.129 107.287C132.227 107.482 132.334 107.668 132.451 107.844ZM160.283 117.658V117.863C160.283 117.922 160.273 117.98 160.254 118.039C160.039 118.449 159.775 118.762 159.463 118.977C159.15 119.191 158.76 119.299 158.291 119.299C157.979 119.299 157.744 119.27 157.588 119.211C157.451 119.152 157.266 119.045 157.031 118.889C156.68 118.928 156.279 118.967 155.83 119.006C155.381 119.025 154.932 119.074 154.482 119.152C154.033 119.211 153.604 119.299 153.193 119.416C152.803 119.533 152.471 119.709 152.197 119.943C152.021 121.291 151.924 122.639 151.904 123.986C151.904 125.314 151.885 126.652 151.846 128C152.002 128.41 152.109 128.859 152.168 129.348C152.227 129.855 152.266 130.314 152.285 130.725C152.422 130.959 152.529 131.193 152.607 131.428C152.686 131.682 152.764 131.936 152.842 132.189C152.92 132.443 153.008 132.688 153.105 132.922C153.223 133.156 153.369 133.371 153.545 133.566C153.701 133.566 153.838 133.576 153.955 133.596C154.092 133.635 154.229 133.674 154.365 133.713V133.889C154.365 134.182 154.453 134.396 154.629 134.533C154.805 134.67 155 134.816 155.215 134.973C155.273 135.188 155.303 135.393 155.303 135.588C155.303 135.92 155.225 136.232 155.068 136.525C154.932 136.818 154.697 137.023 154.365 137.141C154.17 137.141 153.984 137.111 153.809 137.053C153.633 137.014 153.447 136.994 153.252 136.994C153.115 136.994 152.969 137.014 152.813 137.053C152.715 137.014 152.627 136.955 152.549 136.877C152.49 136.818 152.422 136.76 152.344 136.701C152.266 136.643 152.178 136.594 152.08 136.555C152.002 136.516 151.895 136.506 151.758 136.525C151.66 136.252 151.504 135.998 151.289 135.764C151.074 135.529 150.811 135.432 150.498 135.471C150.518 135.393 150.527 135.275 150.527 135.119C150.527 134.846 150.469 134.592 150.352 134.357C150.254 134.123 150.098 133.938 149.883 133.801C149.785 133.352 149.697 132.854 149.619 132.307C149.541 131.779 149.375 131.32 149.121 130.93C149.121 130.363 149.063 129.816 148.945 129.289C148.828 128.781 148.721 128.254 148.623 127.707C148.701 127.395 148.74 127.043 148.74 126.652C148.74 126.379 148.73 126.115 148.711 125.861C148.691 125.588 148.682 125.324 148.682 125.07C148.682 124.797 148.701 124.533 148.74 124.279C148.779 124.006 148.877 123.742 149.033 123.488C148.916 123.293 148.838 123.098 148.799 122.902C148.76 122.688 148.74 122.473 148.74 122.258C148.74 121.926 148.76 121.604 148.799 121.291L148.916 120.354C148.877 120.334 148.809 120.324 148.711 120.324C148.516 120.324 148.35 120.363 148.213 120.441L147.773 120.646C147.676 120.627 147.588 120.617 147.51 120.617H147.246C146.953 120.617 146.66 120.666 146.367 120.764C146.094 120.842 145.85 120.988 145.635 121.203C144.971 121.203 144.307 121.271 143.643 121.408C142.979 121.525 142.314 121.672 141.65 121.848C141.006 122.023 140.361 122.219 139.717 122.434C139.072 122.629 138.428 122.805 137.783 122.961C137.627 123.723 137.51 124.494 137.432 125.275C137.354 126.037 137.314 126.818 137.314 127.619V128.322C137.314 128.576 137.334 128.82 137.373 129.055C137.393 129.211 137.441 129.348 137.52 129.465C137.617 129.602 137.666 129.748 137.666 129.904C137.666 130.041 137.637 130.148 137.578 130.227C137.715 130.461 137.92 130.666 138.193 130.842C138.486 130.744 138.74 130.695 138.955 130.695C139.307 130.695 139.639 130.773 139.951 130.93C140.264 131.105 140.596 131.223 140.947 131.281C140.869 131.555 140.752 131.818 140.596 132.072C140.439 132.346 140.342 132.639 140.303 132.951C140.225 132.99 140.146 133.01 140.068 133.01C140.01 133.01 139.951 133.01 139.893 133.01C139.834 133.029 139.785 133.068 139.746 133.127C139.727 133.186 139.736 133.303 139.775 133.479C139.502 133.615 139.229 133.703 138.955 133.742C138.682 133.801 138.398 133.84 138.105 133.859C137.832 133.879 137.549 133.889 137.256 133.889C136.982 133.889 136.699 133.898 136.406 133.918C136.406 133.801 136.377 133.703 136.318 133.625C136.279 133.566 136.221 133.518 136.143 133.479C136.064 133.459 135.977 133.43 135.879 133.391C135.801 133.352 135.732 133.303 135.674 133.244C135.518 133.107 135.391 132.922 135.293 132.688C135.215 132.473 135.127 132.238 135.029 131.984C134.951 131.75 134.863 131.516 134.766 131.281C134.668 131.047 134.551 130.832 134.414 130.637C134.375 130.207 134.346 129.787 134.326 129.377C134.307 128.967 134.297 128.547 134.297 128.117C134.297 127.316 134.326 126.535 134.385 125.773C134.443 124.992 134.492 124.191 134.531 123.371C134.355 123.195 134.15 123.117 133.916 123.137C133.701 123.156 133.486 123.137 133.271 123.078C133.037 122.785 132.842 122.463 132.686 122.111C132.529 121.74 132.451 121.359 132.451 120.969C132.451 120.773 132.48 120.568 132.539 120.354C132.715 120.295 132.91 120.236 133.125 120.178C133.34 120.119 133.457 119.963 133.477 119.709C133.613 119.787 133.779 119.826 133.975 119.826C134.17 119.826 134.365 119.797 134.561 119.738C134.756 119.68 134.951 119.631 135.146 119.592C135.225 119.279 135.283 118.977 135.322 118.684C135.381 118.371 135.391 118.049 135.352 117.717C135.625 117.307 135.801 116.857 135.879 116.369C135.977 115.881 136.045 115.412 136.084 114.963V114.553C136.084 114.416 136.094 114.279 136.113 114.143C136.152 113.928 136.211 113.684 136.289 113.41C136.367 113.137 136.436 112.883 136.494 112.648C136.592 112.277 136.65 111.926 136.67 111.594C136.709 111.262 136.729 110.92 136.729 110.568V110.451C136.729 110.354 136.689 110.285 136.611 110.246C136.533 110.188 136.494 110.109 136.494 110.012L136.523 109.953C136.602 109.328 136.689 108.713 136.787 108.107C136.904 107.482 137.061 106.867 137.256 106.262C137.1 105.812 137.021 105.305 137.021 104.738C137.021 103.996 137.139 103.283 137.373 102.6C137.256 102.287 137.197 101.984 137.197 101.691C137.197 101.457 137.207 101.223 137.227 100.988C137.266 100.754 137.275 100.52 137.256 100.285C137.451 100.188 137.607 100.051 137.725 99.875C137.861 99.6992 138.018 99.5527 138.193 99.4355C138.779 99.416 139.268 99.6113 139.658 100.021C140.068 100.432 140.273 100.93 140.273 101.516C140.273 101.965 140.146 102.395 139.893 102.805C139.971 103.176 140.01 103.605 140.01 104.094C140.01 104.816 139.961 105.539 139.863 106.262C139.766 106.984 139.736 107.717 139.775 108.459C139.658 108.732 139.6 109.064 139.6 109.455C139.619 109.846 139.609 110.178 139.57 110.451C139.531 110.725 139.473 111.008 139.395 111.301C139.316 111.574 139.268 111.848 139.248 112.121C139.229 112.57 139.209 113.02 139.189 113.469C139.189 113.918 139.141 114.348 139.043 114.758C139.004 114.914 138.945 115.051 138.867 115.168C138.809 115.266 138.76 115.383 138.721 115.52C138.643 115.93 138.613 116.35 138.633 116.779C138.672 117.189 138.672 117.609 138.633 118.039C138.613 118.176 138.574 118.312 138.516 118.449C138.477 118.586 138.457 118.732 138.457 118.889C138.457 118.967 138.477 119.064 138.516 119.182C140.293 119.025 142.061 118.762 143.818 118.391C145.576 118.02 147.344 117.697 149.121 117.424C149.258 117.17 149.326 116.906 149.326 116.633C149.326 116.477 149.297 116.32 149.238 116.164C149.434 115.52 149.58 114.875 149.678 114.23C149.795 113.566 149.893 112.912 149.971 112.268C150.049 111.623 150.117 110.979 150.176 110.334C150.234 109.67 150.313 109.016 150.41 108.371L150.586 107.375C150.645 107.043 150.723 106.721 150.82 106.408C150.859 106.291 150.898 106.174 150.938 106.057C150.996 105.939 151.025 105.832 151.025 105.734C151.025 105.637 150.967 105.568 150.85 105.529C150.752 105.49 150.703 105.441 150.703 105.383C150.703 105.344 150.713 105.324 150.732 105.324C150.771 105.305 150.801 105.305 150.82 105.324C150.918 105.148 150.977 104.963 150.996 104.768C151.016 104.572 151.025 104.377 151.025 104.182C151.045 103.986 151.074 103.801 151.113 103.625C151.152 103.43 151.23 103.254 151.348 103.098C151.328 102.961 151.289 102.834 151.23 102.717C151.172 102.6 151.143 102.463 151.143 102.307C151.123 102.287 151.123 102.268 151.143 102.248C151.182 102.072 151.201 101.926 151.201 101.809C151.221 101.672 151.23 101.516 151.23 101.34C151.23 101.105 151.338 100.92 151.553 100.783C151.455 100.451 151.387 100.09 151.348 99.6992C151.309 99.3086 151.289 98.9277 151.289 98.5566C151.289 98.0488 151.406 97.6289 151.641 97.2969C151.895 96.9453 152.305 96.7695 152.871 96.7695C153.164 96.7695 153.438 96.8281 153.691 96.9453C153.965 97.0625 154.189 97.2285 154.365 97.4434C154.463 97.8926 154.512 98.3125 154.512 98.7031C154.512 98.9766 154.492 99.2402 154.453 99.4941C154.434 99.7285 154.424 99.9824 154.424 100.256C154.424 100.471 154.443 100.676 154.482 100.871C154.521 101.047 154.561 101.232 154.6 101.428C154.424 101.701 154.297 102.004 154.219 102.336C154.141 102.668 154.082 103.01 154.043 103.361C154.023 103.713 154.004 104.074 153.984 104.445C153.984 104.797 153.975 105.119 153.955 105.412C153.896 106.057 153.799 106.691 153.662 107.316C153.545 107.941 153.408 108.566 153.252 109.191C153.311 109.406 153.34 109.602 153.34 109.777C153.34 110.129 153.291 110.48 153.193 110.832C153.096 111.164 153.066 111.496 153.105 111.828C152.969 112.18 152.881 112.541 152.842 112.912C152.803 113.264 152.773 113.635 152.754 114.025L152.695 115.168C152.676 115.539 152.607 115.9 152.49 116.252C152.529 116.35 152.598 116.408 152.695 116.428C152.813 116.428 152.852 116.506 152.813 116.662C153.262 116.525 153.74 116.467 154.248 116.486C154.756 116.486 155.234 116.486 155.684 116.486C155.977 116.486 156.27 116.486 156.563 116.486C156.855 116.467 157.148 116.428 157.441 116.369C157.734 116.291 158.027 116.203 158.32 116.105C158.633 115.988 158.936 115.93 159.229 115.93C159.639 115.93 159.951 116.076 160.166 116.369C160.205 116.584 160.234 116.799 160.254 117.014C160.273 117.229 160.283 117.443 160.283 117.658ZM178.33 123.254C178.252 123.547 178.125 123.791 177.949 123.986C177.773 124.182 177.568 124.357 177.334 124.514C177.119 124.67 176.885 124.816 176.631 124.953C176.377 125.07 176.133 125.207 175.898 125.363H175.518C174.697 125.363 174.063 125.168 173.613 124.777C173.184 124.367 172.852 123.869 172.617 123.283C172.383 122.678 172.207 122.033 172.09 121.35C171.992 120.666 171.865 120.041 171.709 119.475C171.475 119.67 171.279 119.904 171.123 120.178C170.967 120.432 170.801 120.686 170.625 120.939C170.469 121.193 170.283 121.428 170.068 121.643C169.873 121.857 169.609 122.004 169.277 122.082C169.219 122.219 169.15 122.355 169.072 122.492C169.014 122.629 168.975 122.775 168.955 122.932C168.525 123.166 168.135 123.439 167.783 123.752C167.432 124.064 167.08 124.387 166.729 124.719C166.377 125.051 166.016 125.373 165.645 125.686C165.293 125.979 164.893 126.223 164.443 126.418C164.424 126.398 164.385 126.389 164.326 126.389C164.092 126.389 163.877 126.447 163.682 126.564C163.486 126.662 163.271 126.711 163.037 126.711C162.881 126.711 162.734 126.682 162.598 126.623C162.48 126.564 162.354 126.496 162.217 126.418C162.1 126.34 161.973 126.281 161.836 126.242C161.699 126.203 161.553 126.193 161.396 126.213C161.201 125.861 160.938 125.539 160.605 125.246C160.293 124.934 160.098 124.582 160.02 124.191C159.98 124.016 159.951 123.84 159.932 123.664C159.932 123.469 159.912 123.273 159.873 123.078C159.814 122.785 159.736 122.492 159.639 122.199C159.541 121.887 159.463 121.574 159.404 121.262C159.502 120.734 159.6 120.158 159.697 119.533C159.775 118.889 159.873 118.254 159.99 117.629C160.127 116.984 160.303 116.379 160.518 115.812C160.752 115.227 161.045 114.729 161.396 114.318L161.367 114.113C161.367 113.801 161.426 113.508 161.543 113.234C161.66 112.961 161.787 112.697 161.924 112.443C162.061 112.189 162.178 111.936 162.275 111.682C162.373 111.428 162.393 111.145 162.334 110.832C162.568 110.715 162.813 110.617 163.066 110.539C163.32 110.461 163.584 110.422 163.857 110.422C164.111 110.422 164.346 110.461 164.561 110.539C164.521 110.695 164.59 110.793 164.766 110.832V110.92C164.766 111.33 164.717 111.73 164.619 112.121C164.521 112.512 164.404 112.902 164.268 113.293C164.131 113.664 163.994 114.045 163.857 114.436C163.74 114.807 163.652 115.188 163.594 115.578C163.516 115.598 163.457 115.637 163.418 115.695C163.398 115.754 163.379 115.812 163.359 115.871C163.34 115.93 163.311 115.979 163.271 116.018C163.232 116.057 163.174 116.076 163.096 116.076C162.979 116.76 162.852 117.443 162.715 118.127C162.598 118.791 162.539 119.465 162.539 120.148C162.539 120.559 162.578 120.979 162.656 121.408C162.734 121.838 162.881 122.248 163.096 122.639L163.213 122.609C163.428 122.609 163.594 122.658 163.711 122.756C163.848 122.854 164.023 122.951 164.238 123.049C164.395 123.01 164.541 122.961 164.678 122.902C164.814 122.824 164.873 122.697 164.854 122.521C165.107 122.502 165.322 122.443 165.498 122.346C165.674 122.229 165.83 122.102 165.967 121.965L166.406 121.555C166.563 121.418 166.748 121.32 166.963 121.262C166.963 121.145 166.992 121.057 167.051 120.998L167.227 120.822C167.285 120.764 167.324 120.705 167.344 120.646C167.383 120.568 167.393 120.461 167.373 120.324C167.607 120.305 167.783 120.246 167.9 120.148C168.037 120.051 168.154 119.943 168.252 119.826C168.369 119.689 168.477 119.553 168.574 119.416C168.672 119.279 168.799 119.162 168.955 119.064C169.092 118.771 169.277 118.381 169.512 117.893C169.766 117.404 170.01 116.896 170.244 116.369C170.498 115.842 170.713 115.344 170.889 114.875C171.084 114.387 171.182 114.016 171.182 113.762C171.182 113.664 171.152 113.576 171.094 113.498C171.055 113.42 171.045 113.332 171.064 113.234V113.146C171.221 112.951 171.357 112.736 171.475 112.502C171.611 112.268 171.748 112.043 171.885 111.828C172.041 111.613 172.207 111.418 172.383 111.242C172.559 111.066 172.783 110.93 173.057 110.832C173.369 110.93 173.682 110.998 173.994 111.037C174.326 111.076 174.639 111.154 174.932 111.271C174.951 111.76 175 112.326 175.078 112.971C175.156 113.615 175.293 114.162 175.488 114.611C175.488 114.865 175.479 115.109 175.459 115.344C175.459 115.578 175.459 115.812 175.459 116.047C175.459 116.438 175.469 116.838 175.488 117.248C175.527 117.658 175.596 118.039 175.693 118.391C175.557 118.684 175.488 118.996 175.488 119.328C175.488 119.777 175.557 120.207 175.693 120.617C175.83 121.008 175.928 121.428 175.986 121.877C176.24 122.229 176.572 122.404 176.982 122.404C177.08 122.404 177.158 122.395 177.217 122.375C177.295 122.355 177.373 122.326 177.451 122.287C177.607 122.463 177.744 122.639 177.861 122.814C177.998 122.971 178.154 123.117 178.33 123.254ZM204.521 109.162C204.443 109.416 204.316 109.65 204.141 109.865L203.643 110.48C203.486 110.676 203.35 110.891 203.232 111.125C203.135 111.34 203.105 111.594 203.145 111.887C203.105 111.887 203.057 111.887 202.998 111.887C202.939 111.867 202.891 111.857 202.852 111.857C202.539 111.857 202.295 111.936 202.119 112.092C201.963 112.229 201.748 112.346 201.475 112.443C201.436 112.326 201.387 112.219 201.328 112.121C201.27 112.004 201.182 111.926 201.064 111.887C200.596 111.984 200.127 112.062 199.658 112.121C199.189 112.16 198.721 112.219 198.252 112.297C198.037 112.336 197.822 112.395 197.607 112.473C197.393 112.531 197.168 112.59 196.934 112.648C196.816 112.688 196.689 112.707 196.553 112.707C196.416 112.688 196.279 112.688 196.143 112.707C195.674 112.727 195.166 112.766 194.619 112.824C194.072 112.863 193.584 113.01 193.154 113.264C192.959 113.225 192.754 113.195 192.539 113.176C192.324 113.156 192.109 113.146 191.895 113.146C191.426 113.146 190.908 113.195 190.342 113.293C189.795 113.371 189.307 113.537 188.877 113.791C188.779 113.752 188.672 113.723 188.555 113.703C188.457 113.684 188.34 113.674 188.203 113.674C188.164 113.674 188.135 113.684 188.115 113.703C188.096 113.703 188.066 113.703 188.027 113.703C188.008 113.879 188.027 114.055 188.086 114.23C188.164 114.387 188.291 114.514 188.467 114.611C188.389 114.826 188.35 115.061 188.35 115.314C188.35 115.646 188.369 115.979 188.408 116.311C188.467 116.643 188.496 116.975 188.496 117.307C188.496 117.678 188.447 117.971 188.35 118.186C188.545 118.771 188.643 119.396 188.643 120.061C188.643 120.295 188.623 120.529 188.584 120.764C188.564 120.979 188.555 121.213 188.555 121.467C188.555 121.682 188.633 121.857 188.789 121.994C188.945 122.111 189.023 122.277 189.023 122.492C189.023 122.57 189.004 122.648 188.965 122.727C189.238 122.668 189.502 122.59 189.756 122.492C190.01 122.375 190.273 122.316 190.547 122.316C190.703 122.316 190.85 122.346 190.986 122.404C191.143 122.463 191.279 122.541 191.396 122.639C191.377 122.736 191.357 122.844 191.338 122.961C191.338 123.078 191.338 123.195 191.338 123.312C191.338 123.527 191.338 123.732 191.338 123.928C191.357 124.104 191.377 124.299 191.396 124.514C191.24 124.787 191.055 125.031 190.84 125.246C190.645 125.461 190.508 125.734 190.43 126.066C190.137 126.066 189.873 126.135 189.639 126.271C189.424 126.389 189.219 126.525 189.023 126.682C188.828 126.818 188.633 126.955 188.438 127.092C188.242 127.209 188.027 127.268 187.793 127.268C187.5 127.268 187.295 127.229 187.178 127.15C187.061 127.053 186.973 126.955 186.914 126.857C186.855 126.76 186.797 126.672 186.738 126.594C186.699 126.516 186.602 126.486 186.445 126.506C186.406 126.252 186.328 126.018 186.211 125.803C186.094 125.568 185.967 125.344 185.83 125.129C185.713 124.914 185.586 124.699 185.449 124.484C185.332 124.25 185.244 124.016 185.186 123.781C185.068 123.273 185.02 122.746 185.039 122.199C185.059 121.652 184.971 121.125 184.775 120.617C184.814 120.344 184.844 120.07 184.863 119.797C184.883 119.504 184.893 119.221 184.893 118.947C184.893 118.4 184.873 117.863 184.834 117.336C184.814 116.789 184.795 116.232 184.775 115.666C184.639 115.49 184.551 115.295 184.512 115.08C184.492 114.846 184.473 114.621 184.453 114.406C184.395 114.348 184.326 114.289 184.248 114.23C184.189 114.172 184.15 114.094 184.131 113.996C183.975 113.957 183.857 113.938 183.779 113.938C183.506 113.938 183.271 114.006 183.076 114.143C182.9 114.26 182.734 114.318 182.578 114.318C182.422 114.318 182.275 114.299 182.139 114.26C182.002 114.221 181.865 114.201 181.729 114.201C181.611 114.201 181.543 114.23 181.523 114.289C181.523 114.328 181.484 114.367 181.406 114.406C181.348 114.445 181.211 114.484 180.996 114.523C180.781 114.562 180.537 114.602 180.264 114.641C180.01 114.66 179.756 114.68 179.502 114.699C179.268 114.719 179.111 114.729 179.033 114.729C178.721 114.729 178.486 114.67 178.33 114.553C178.154 114.416 177.949 114.27 177.715 114.113C177.754 113.996 177.773 113.918 177.773 113.879C177.773 113.684 177.715 113.527 177.598 113.41C177.48 113.273 177.422 113.156 177.422 113.059C177.422 112.844 177.51 112.678 177.686 112.561C177.842 112.443 177.93 112.258 177.949 112.004C178.398 111.809 178.857 111.662 179.326 111.564C179.795 111.467 180.273 111.389 180.762 111.33C181.25 111.271 181.729 111.203 182.197 111.125C182.686 111.047 183.164 110.92 183.633 110.744C183.77 110.764 183.896 110.783 184.014 110.803C184.15 110.803 184.287 110.803 184.424 110.803C185.01 110.803 185.586 110.744 186.152 110.627C186.738 110.49 187.334 110.422 187.939 110.422C188.096 110.422 188.252 110.432 188.408 110.451C188.564 110.471 188.721 110.5 188.877 110.539C189.658 110.422 190.43 110.295 191.191 110.158C191.973 110.021 192.773 109.904 193.594 109.807C193.984 109.768 194.365 109.738 194.736 109.719C195.127 109.68 195.518 109.631 195.908 109.572C196.045 109.553 196.143 109.523 196.201 109.484C196.279 109.426 196.318 109.318 196.318 109.162C196.494 109.24 196.689 109.279 196.904 109.279C197.236 109.279 197.559 109.221 197.871 109.104C198.184 108.986 198.506 108.928 198.838 108.928C198.916 108.928 198.984 108.938 199.043 108.957C199.102 108.957 199.16 108.957 199.219 108.957C199.355 108.957 199.424 108.898 199.424 108.781C199.443 108.645 199.541 108.557 199.717 108.518C199.854 108.479 200.049 108.449 200.303 108.43C200.557 108.41 200.82 108.391 201.094 108.371C201.387 108.332 201.65 108.293 201.885 108.254C202.139 108.195 202.324 108.117 202.441 108.02L202.646 107.697C202.998 107.717 203.252 107.873 203.408 108.166C203.584 108.439 203.682 108.742 203.701 109.074C203.779 109.152 203.887 109.191 204.023 109.191C204.18 109.172 204.316 109.162 204.434 109.162H204.521Z" fill="black"/>
</svg>
